<svg xmlns="http://www.w3.org/2000/svg" width="512" height="512" viewBox="0 0 512 512">
  <!-- icon-a.svg의 도형을 그대로 사용: 주색 라운드 사각형 배경, 흰색 심볼을 정가운데(세로 -2px 보정)로 배치 -->
  <rect width="512" height="512" rx="112" fill="#F2788A"/>
  <g transform="translate(0 -2)">
    <g transform="translate(211 104) scale(.9)"><path d="M0 30 30 0 50 20 70 0 100 30 50 80Z" fill="#FFFFFF"/></g>
    <g transform="translate(151 164) scale(.9)"><path d="M0 30 30 0 50 20 70 0 100 30 50 80Z" fill="#FFFFFF"/></g>
    <g transform="translate(271 164) scale(.9)"><path d="M0 30 30 0 50 20 70 0 100 30 50 80Z" fill="#FFFFFF"/></g>
    <g transform="translate(91 224) scale(.9)"><path d="M0 30 30 0 50 20 70 0 100 30 50 80Z" fill="#FFFFFF"/></g>
    <g transform="translate(331 224) scale(.9)"><path d="M0 30 30 0 50 20 70 0 100 30 50 80Z" fill="#FFFFFF"/></g>
    <path d="M146 330V404H222V372A34 34 0 0 1 290 372V404H366V330" fill="none" stroke="#FFFFFF" stroke-width="16" stroke-linecap="round" stroke-linejoin="round"/>
  </g>
</svg>
